<?xml version="1.0" encoding="UTF-8"?>
<svg id="layer_1" data-name="layer 1" xmlns="http://www.w3.org/2000/svg" viewBox="0 0 35.84 32">
  <defs>
    <style>
      .cls-1 {
        fill: #e0bf32;
        stroke-width: 0px;
      }
    </style>
  </defs>
  <path class="cls-1" d="M11,26.15V19.51C14.51,18.53,17,15.51,17,11.85S15.93,5.34,15.03,3.43c-.16-.35-.52-.58-.91-.58H2.87c-.39,0-.74.22-.91.58C1.37,5.27,0,8.62,0,12.43s2.49,6.68,6,7.66v6.64C3.19,27.85,1,29.87,1,31.43c0,.55.45,1,1,1H15c.55,0,1-.45,1-1C16,29.87,13.81,27.85,11,26.15Zm-2,3.7H3.76c.72-.68,1.94-1.51,3.56-2.05.41-.14.68-.52.68-.95v-9.02c-3.4-.23-6-2.77-6-5.98,0-2.18.56-4.75,1.52-7h9.96c.75,1.73,1.52,4.2,1.52,7,0,3.21-2.6,5.75-6,5.98v9.02c0,.43.28.81.68.95,1.63.54,2.85,1.37,3.57,2.05h-4.25Zm-6-18c0-1.9.56-3.71,1-5h6v5c0,.55.45,1,1,1s1-.45,1-1v-5h1c.49,1.4,1,3.12,1,5,0,6.41-11,6.94-11,0Z"/>
  <path class="cls-1" d="M28.84,13v11l-3-3-3,3,3,3,3-3v4c0,.55-.45,1-1,1h-6c-.55,0-1-.45-1-1v-10l3,3,3-3-3-3-3,3v-7c0-.55.45-1,1-1h2c.55,0,1,.45,1,1s-.45,1-1,1h-1v1h6Zm6.78-7.38c-.34.43-.98.5-1.41.16l-3.97-3.18-1.89,4.4h2.47c.42,0,.78.25.93.62.05.12.08.25.08.39v21.99c0,1.1-.9,2-2,2h-10c-1.1,0-2-.9-2-2V8.01c0-.14.03-.27.08-.39.15-.36.51-.62.93-.62h7.33l2.74-6.39c.12-.29.37-.5.68-.58.3-.08.62,0,.87.19l5,4c.43.35.5.97.16,1.41Zm-5.78,3.38h-10v21h10V9Z"/>
</svg>
